<mxfile host="app.diagrams.net" modified="2022-08-18T11:29:02.455Z" agent="5.0 (Macintosh; Intel Mac OS X 10_15_7) AppleWebKit/537.36 (KHTML, like Gecko) Chrome/104.0.0.0 Safari/537.36" etag="nVhO06Mt6hQR8ZdIpC1g" version="20.2.4" type="github">
  <diagram id="__t5j2zCFiW3Rvz2Qufi" name="Page-1">
    <mxGraphModel dx="1848" dy="1682" grid="1" gridSize="10" guides="1" tooltips="1" connect="1" arrows="1" fold="1" page="1" pageScale="1" pageWidth="850" pageHeight="1100" math="0" shadow="0">
      <root>
        <mxCell id="0" />
        <mxCell id="1" parent="0" />
        <mxCell id="_X0fKtTXYEG9xx71EDyo-1" value="&lt;interface&gt; AudioEncoder " style="swimlane;fontStyle=1;align=center;verticalAlign=top;childLayout=stackLayout;horizontal=1;startSize=26;horizontalStack=0;resizeParent=1;resizeParentMax=0;resizeLast=0;collapsible=1;marginBottom=0;" parent="1" vertex="1">
          <mxGeometry x="70" y="-80" width="385" height="114" as="geometry" />
        </mxCell>
        <mxCell id="_X0fKtTXYEG9xx71EDyo-3" value="" style="line;strokeWidth=1;fillColor=none;align=left;verticalAlign=middle;spacingTop=-1;spacingLeft=3;spacingRight=3;rotatable=0;labelPosition=right;points=[];portConstraint=eastwest;" parent="_X0fKtTXYEG9xx71EDyo-1" vertex="1">
          <mxGeometry y="26" width="385" height="8" as="geometry" />
        </mxCell>
        <mxCell id="_X0fKtTXYEG9xx71EDyo-4" value="+ Encode(rtp_timestamp,int16* audio, Buffer* encoded): EncodedInfo&#xa;+ SetFec(bool):bool&#xa;+ SetDtx(bool):bool&#xa;+ EnableAudioNetworkAdaptor(config_string, event_log):bool" style="text;strokeColor=none;fillColor=none;align=left;verticalAlign=top;spacingLeft=4;spacingRight=4;overflow=hidden;rotatable=0;points=[[0,0.5],[1,0.5]];portConstraint=eastwest;" parent="_X0fKtTXYEG9xx71EDyo-1" vertex="1">
          <mxGeometry y="34" width="385" height="80" as="geometry" />
        </mxCell>
        <mxCell id="_X0fKtTXYEG9xx71EDyo-6" value="&lt;interface&gt; AudioDecoder" style="swimlane;fontStyle=1;align=center;verticalAlign=top;childLayout=stackLayout;horizontal=1;startSize=26;horizontalStack=0;resizeParent=1;resizeParentMax=0;resizeLast=0;collapsible=1;marginBottom=0;" parent="1" vertex="1">
          <mxGeometry x="100" y="310" width="560" height="188" as="geometry" />
        </mxCell>
        <mxCell id="_X0fKtTXYEG9xx71EDyo-7" value="+ field: type" style="text;strokeColor=none;fillColor=none;align=left;verticalAlign=top;spacingLeft=4;spacingRight=4;overflow=hidden;rotatable=0;points=[[0,0.5],[1,0.5]];portConstraint=eastwest;" parent="_X0fKtTXYEG9xx71EDyo-6" vertex="1">
          <mxGeometry y="26" width="560" height="74" as="geometry" />
        </mxCell>
        <mxCell id="_X0fKtTXYEG9xx71EDyo-8" value="" style="line;strokeWidth=1;fillColor=none;align=left;verticalAlign=middle;spacingTop=-1;spacingLeft=3;spacingRight=3;rotatable=0;labelPosition=right;points=[];portConstraint=eastwest;" parent="_X0fKtTXYEG9xx71EDyo-6" vertex="1">
          <mxGeometry y="100" width="560" height="8" as="geometry" />
        </mxCell>
        <mxCell id="_X0fKtTXYEG9xx71EDyo-9" value="+ ParsePayload(payload,timestamp):ParseResult&#xa;+ Decode(* encoded, encoded_len, sample_rate_hz, max_decoded_bytes,* decoded, speech_type): int&#xa;+ DecodePlc(num_frames, int16_t* decoded):size_t&#xa;# DecedeInternalr( encoded, encoded_len, sample_rate_hz, *decoded, * decoded,speech_type):int" style="text;strokeColor=none;fillColor=none;align=left;verticalAlign=top;spacingLeft=4;spacingRight=4;overflow=hidden;rotatable=0;points=[[0,0.5],[1,0.5]];portConstraint=eastwest;" parent="_X0fKtTXYEG9xx71EDyo-6" vertex="1">
          <mxGeometry y="108" width="560" height="80" as="geometry" />
        </mxCell>
        <mxCell id="_X0fKtTXYEG9xx71EDyo-14" value="&lt;interface&gt; AudioPacketizationCallback" style="swimlane;fontStyle=1;align=center;verticalAlign=top;childLayout=stackLayout;horizontal=1;startSize=26;horizontalStack=0;resizeParent=1;resizeParentMax=0;resizeLast=0;collapsible=1;marginBottom=0;" parent="1" vertex="1">
          <mxGeometry x="-660" y="310" width="560" height="70" as="geometry" />
        </mxCell>
        <mxCell id="_X0fKtTXYEG9xx71EDyo-16" value="" style="line;strokeWidth=1;fillColor=none;align=left;verticalAlign=middle;spacingTop=-1;spacingLeft=3;spacingRight=3;rotatable=0;labelPosition=right;points=[];portConstraint=eastwest;" parent="_X0fKtTXYEG9xx71EDyo-14" vertex="1">
          <mxGeometry y="26" width="560" height="8" as="geometry" />
        </mxCell>
        <mxCell id="_X0fKtTXYEG9xx71EDyo-17" value="+ SendData(AudioFrameType, payload_type, timestamp, *payload_data, payload_len_bytes):int32_t&#xa;" style="text;strokeColor=none;fillColor=none;align=left;verticalAlign=top;spacingLeft=4;spacingRight=4;overflow=hidden;rotatable=0;points=[[0,0.5],[1,0.5]];portConstraint=eastwest;" parent="_X0fKtTXYEG9xx71EDyo-14" vertex="1">
          <mxGeometry y="34" width="560" height="36" as="geometry" />
        </mxCell>
        <mxCell id="_X0fKtTXYEG9xx71EDyo-18" value="Use" style="endArrow=open;endSize=12;dashed=1;html=1;rounded=0;entryX=0.25;entryY=0;entryDx=0;entryDy=0;exitX=0.002;exitY=0.185;exitDx=0;exitDy=0;exitPerimeter=0;" parent="1" source="4_vkvy376eCyaTvO66Za-4" target="_X0fKtTXYEG9xx71EDyo-14" edge="1">
          <mxGeometry width="160" relative="1" as="geometry">
            <mxPoint x="-493.05999999999995" y="305.00599999999986" as="sourcePoint" />
            <mxPoint x="-300" y="570" as="targetPoint" />
          </mxGeometry>
        </mxCell>
        <mxCell id="4_vkvy376eCyaTvO66Za-1" value="AudioCodingModuleImpl" style="swimlane;fontStyle=1;align=center;verticalAlign=top;childLayout=stackLayout;horizontal=1;startSize=26;horizontalStack=0;resizeParent=1;resizeParentMax=0;resizeLast=0;collapsible=1;marginBottom=0;" vertex="1" parent="1">
          <mxGeometry x="-490" y="-160" width="490" height="340" as="geometry" />
        </mxCell>
        <mxCell id="4_vkvy376eCyaTvO66Za-2" value="- encode_buffer_: rtc::Buffer&#xa;- receiver_:acm2:AcmReceiver&#xa;- encoder_stack_:std::unique_ptr&lt;AudioEncoder&gt;&#xa;- packetization_callback_: AudioPacketizationCallback*" style="text;strokeColor=none;fillColor=none;align=left;verticalAlign=top;spacingLeft=4;spacingRight=4;overflow=hidden;rotatable=0;points=[[0,0.5],[1,0.5]];portConstraint=eastwest;" vertex="1" parent="4_vkvy376eCyaTvO66Za-1">
          <mxGeometry y="26" width="490" height="74" as="geometry" />
        </mxCell>
        <mxCell id="4_vkvy376eCyaTvO66Za-3" value="" style="line;strokeWidth=1;fillColor=none;align=left;verticalAlign=middle;spacingTop=-1;spacingLeft=3;spacingRight=3;rotatable=0;labelPosition=right;points=[];portConstraint=eastwest;" vertex="1" parent="4_vkvy376eCyaTvO66Za-1">
          <mxGeometry y="100" width="490" height="8" as="geometry" />
        </mxCell>
        <mxCell id="4_vkvy376eCyaTvO66Za-4" value="//sender&#xa;+ ModifyEncoder(AudioEncoder *):void&#xa;+ RegisterTransportCallback( AudioPacketizationCallback* transport):int&#xa;+ Add10MsData(const AudioFrame&amp; audio_frame): int&#xa;+ SetPacketLossRate(int loss_rate):int&#xa;//Receiver&#xa;+ InitializeReceiver():int&#xa;+ ParsePayload(payload,timestamp):ParseResult&#xa;+ IncomingPacket( * incoming_payload, payload_len_bytes, RTPHeader&amp; rtp_header):int&#xa;+ PlayoutData10Ms(desired_freq_hz, AudioFrame* audio_frame, bool* muted):int&#xa;+ SetReceiveCodecs(std::map&lt;int, SdpAudioFormat&gt;&amp; codecs):void&#xa;//Statistics&#xa;+ GetNetworkStatistics(NetworkStatistics*):int&#xa;- Add10MsDataInternal(AudioFrame&amp;, InputData*):int&#xa;- Encode(InputData&amp;, absolute_capture_timestamp_ms):int" style="text;strokeColor=none;fillColor=none;align=left;verticalAlign=top;spacingLeft=4;spacingRight=4;overflow=hidden;rotatable=0;points=[[0,0.5],[1,0.5]];portConstraint=eastwest;" vertex="1" parent="4_vkvy376eCyaTvO66Za-1">
          <mxGeometry y="108" width="490" height="232" as="geometry" />
        </mxCell>
        <mxCell id="4_vkvy376eCyaTvO66Za-5" value="«interface»&lt;br&gt;&lt;span style=&quot;font-weight: 700;&quot;&gt;AudioCodingModule&lt;/span&gt;" style="html=1;" vertex="1" parent="1">
          <mxGeometry x="-330" y="230" width="200" height="50" as="geometry" />
        </mxCell>
        <mxCell id="4_vkvy376eCyaTvO66Za-7" value="Extends" style="endArrow=block;endSize=16;endFill=0;html=1;rounded=0;exitX=0.5;exitY=0;exitDx=0;exitDy=0;" edge="1" parent="1" source="4_vkvy376eCyaTvO66Za-5" target="4_vkvy376eCyaTvO66Za-4">
          <mxGeometry width="160" relative="1" as="geometry">
            <mxPoint x="-290" y="100" as="sourcePoint" />
            <mxPoint x="-130" y="100" as="targetPoint" />
          </mxGeometry>
        </mxCell>
        <mxCell id="4_vkvy376eCyaTvO66Za-8" value="Use" style="endArrow=open;endSize=12;dashed=1;html=1;rounded=0;exitX=1;exitY=0.5;exitDx=0;exitDy=0;entryX=-0.003;entryY=0.148;entryDx=0;entryDy=0;entryPerimeter=0;" edge="1" parent="1" source="4_vkvy376eCyaTvO66Za-2" target="_X0fKtTXYEG9xx71EDyo-1">
          <mxGeometry width="160" relative="1" as="geometry">
            <mxPoint x="-478.98" y="0.9200000000000728" as="sourcePoint" />
            <mxPoint x="240" y="-100" as="targetPoint" />
          </mxGeometry>
        </mxCell>
        <mxCell id="4_vkvy376eCyaTvO66Za-9" value="&lt;meta charset=&quot;utf-8&quot;&gt;&lt;div style=&quot;margin: 0px; padding: 0px; box-sizing: border-box; border-color: var(--border); color: rgb(0, 0, 0); font-family: monospace; font-size: medium; font-style: normal; font-variant-ligatures: normal; font-variant-caps: normal; font-weight: 400; letter-spacing: normal; orphans: 2; text-align: start; text-indent: 0px; text-transform: none; widows: 2; word-spacing: 0px; -webkit-text-stroke-width: 0px; background-color: rgb(255, 255, 255); text-decoration-thickness: initial; text-decoration-style: initial; text-decoration-color: initial;&quot; data-line-number=&quot;632&quot;&gt;&lt;a style=&quot;margin: 0px; padding: 0px; box-sizing: border-box; border-color: var(--border); color: inherit; text-decoration: none;&quot; data-key=&quot;812&quot; href=&quot;https://source.chromium.org/chromium/chromium/src/+/main:third_party/webrtc/modules/audio_coding/include/audio_coding_module.h;drc=76379e9fb5dea073e8f836bc8eebfdb3ebc58748;l=62&quot; class=&quot;semantic-decoration&quot;&gt;AudioCodingModule&lt;/a&gt;* &lt;a style=&quot;margin: 0px; padding: 0px; box-sizing: border-box; border-color: var(--border); color: inherit; text-decoration: none;&quot; data-key=&quot;813&quot; href=&quot;https://source.chromium.org/chromium/chromium/src/+/main:third_party/webrtc/modules/audio_coding/include/audio_coding_module.h;drc=76379e9fb5dea073e8f836bc8eebfdb3ebc58748;l=62&quot; class=&quot;semantic-decoration&quot;&gt;AudioCodingModule&lt;/a&gt;::&lt;a style=&quot;margin: 0px; padding: 0px; box-sizing: border-box; border-color: var(--border); color: inherit; text-decoration: none;&quot; data-key=&quot;814&quot; href=&quot;https://source.chromium.org/chromium/chromium/src/+/main:third_party/webrtc/modules/audio_coding/acm2/audio_coding_module.cc;bpv=1;bpt=1;l=633?gsn=Create&amp;amp;gs=kythe%3A%2F%2Fchromium.googlesource.com%2Fchromium%2Fsrc%3Flang%3Dc%252B%252B%3Fpath%3Dthird_party%2Fwebrtc%2Fmodules%2Faudio_coding%2Finclude%2Faudio_coding_module.h%23F8fGJ2MseK1wsZq0QnyrMok6Rql_pZHuTZtGzEwraoM&amp;amp;gs=kythe%3A%2F%2Fchromium.googlesource.com%2Fchromium%2Fsrc%3Flang%3Dc%252B%252B%3Fpath%3Dthird_party%2Fwebrtc%2Fmodules%2Faudio_coding%2Facm2%2Faudio_coding_module.cc%23nBngZtx-QH05G2UzwvxuWPYd8BjfpdEklOp6wA-rYJo&quot; class=&quot;semantic-decoration&quot;&gt;Create&lt;/a&gt;(&lt;span style=&quot;margin: 0px; padding: 0px; box-sizing: border-box; border-color: var(--border); color: rgb(119, 0, 136);&quot; class=&quot;cm-keyword&quot;&gt;const&lt;/span&gt; &lt;a style=&quot;margin: 0px; padding: 0px; box-sizing: border-box; border-color: var(--border); color: inherit; text-decoration: none;&quot; data-key=&quot;815&quot; href=&quot;https://source.chromium.org/chromium/chromium/src/+/main:third_party/webrtc/modules/audio_coding/include/audio_coding_module.h;drc=76379e9fb5dea073e8f836bc8eebfdb3ebc58748;l=67&quot; class=&quot;semantic-decoration&quot;&gt;Config&lt;/a&gt;&amp;amp; &lt;a style=&quot;margin: 0px; padding: 0px; box-sizing: border-box; border-color: var(--border); color: inherit; text-decoration: none;&quot; data-key=&quot;816&quot; href=&quot;https://source.chromium.org/chromium/chromium/src/+/main:third_party/webrtc/modules/audio_coding/acm2/audio_coding_module.cc;bpv=1;bpt=1;l=633?gsn=config&amp;amp;gs=kythe%3A%2F%2Fchromium.googlesource.com%2Fchromium%2Fsrc%3Flang%3Dc%252B%252B%3Fpath%3Dthird_party%2Fwebrtc%2Fmodules%2Faudio_coding%2Facm2%2Faudio_coding_module.cc%23T8fj958GVJ9NlKvX4RsOz5sP8joxjSWpIcE_AKRXaZc&quot; class=&quot;semantic-decoration&quot;&gt;config&lt;/a&gt;) {&#xa;&lt;/div&gt;&lt;div style=&quot;margin: 0px; padding: 0px; box-sizing: border-box; border-color: var(--border); color: rgb(0, 0, 0); font-family: monospace; font-size: medium; font-style: normal; font-variant-ligatures: normal; font-variant-caps: normal; font-weight: 400; letter-spacing: normal; orphans: 2; text-align: start; text-indent: 0px; text-transform: none; widows: 2; word-spacing: 0px; -webkit-text-stroke-width: 0px; background-color: rgb(255, 255, 255); text-decoration-thickness: initial; text-decoration-style: initial; text-decoration-color: initial;&quot; data-line-number=&quot;633&quot;&gt;  &lt;span style=&quot;margin: 0px; padding: 0px; box-sizing: border-box; border-color: var(--border); color: rgb(119, 0, 136);&quot; class=&quot;cm-keyword&quot;&gt;return&lt;/span&gt; &lt;a style=&quot;margin: 0px; padding: 0px; box-sizing: border-box; border-color: var(--border); color: inherit; text-decoration: none;&quot; data-key=&quot;817&quot; href=&quot;https://source.chromium.org/chromium/chromium/src/+/main:third_party/webrtc/modules/audio_coding/acm2/audio_coding_module.cc;bpv=1;bpt=1;l=634?gsn=new&amp;amp;gs=kythe%3A%2F%2Fchromium.googlesource.com%2Fchromium%2Fsrc%3Flang%3Dc%252B%252B%3Fpath%3Dbuildtools%2Fthird_party%2Flibc%252B%252B%2Ftrunk%2Finclude%2Fnew%23kUFs2E7a-jTML_oS2d9v8jmuoQdyoppxUDAiKhZxcj4&amp;amp;gs=kythe%3A%2F%2Fchromium.googlesource.com%2Fchromium%2Fsrc%3Flang%3Dc%252B%252B%3Fpath%3Dvs_files%2F1023ce2e82%2FVC%2FTools%2FMSVC%2F14.29.30133%2Finclude%2Fvcruntime_new.h%3Froot%3Dthird_party%2Fdepot_tools%2Fwin_toolchain%23N0r7npL2ZCodSO1kizE9t0r4j51BspoDCOxX3RkWIEo&quot; class=&quot;semantic-decoration&quot;&gt;&lt;span style=&quot;margin: 0px; padding: 0px; box-sizing: border-box; border-color: var(--border); color: rgb(119, 0, 136);&quot; class=&quot;cm-keyword&quot;&gt;new&lt;/span&gt;&lt;/a&gt; &lt;a style=&quot;margin: 0px; padding: 0px; box-sizing: border-box; border-color: var(--border); color: inherit; text-decoration: none;&quot; data-key=&quot;818&quot; href=&quot;https://source.chromium.org/chromium/chromium/src/+/main:third_party/webrtc/modules/audio_coding/acm2/audio_coding_module.cc;drc=76379e9fb5dea073e8f836bc8eebfdb3ebc58748;l=209&quot; class=&quot;semantic-decoration&quot;&gt;AudioCodingModuleImpl&lt;/a&gt;(&lt;a style=&quot;margin: 0px; padding: 0px; box-sizing: border-box; border-color: var(--border); color: inherit; text-decoration: none;&quot; data-key=&quot;819&quot; href=&quot;https://source.chromium.org/chromium/chromium/src/+/main:third_party/webrtc/modules/audio_coding/acm2/audio_coding_module.cc;drc=76379e9fb5dea073e8f836bc8eebfdb3ebc58748;l=633&quot; class=&quot;semantic-decoration&quot;&gt;config&lt;/a&gt;);&#xa;&lt;/div&gt;&lt;div style=&quot;margin: 0px; padding: 0px; box-sizing: border-box; border-color: var(--border); color: rgb(0, 0, 0); font-family: monospace; font-size: medium; font-style: normal; font-variant-ligatures: normal; font-variant-caps: normal; font-weight: 400; letter-spacing: normal; orphans: 2; text-align: start; text-indent: 0px; text-transform: none; widows: 2; word-spacing: 0px; -webkit-text-stroke-width: 0px; background-color: rgb(255, 255, 255); text-decoration-thickness: initial; text-decoration-style: initial; text-decoration-color: initial;&quot; data-line-number=&quot;634&quot;&gt;}&lt;/div&gt;" style="text;whiteSpace=wrap;html=1;" vertex="1" parent="1">
          <mxGeometry x="-510" y="-310" width="560" height="90" as="geometry" />
        </mxCell>
        <mxCell id="4_vkvy376eCyaTvO66Za-10" value="&lt;interface&gt;  AcmReceiver" style="swimlane;fontStyle=1;align=center;verticalAlign=top;childLayout=stackLayout;horizontal=1;startSize=26;horizontalStack=0;resizeParent=1;resizeParentMax=0;resizeLast=0;collapsible=1;marginBottom=0;" vertex="1" parent="1">
          <mxGeometry x="60" y="-260" width="560" height="170" as="geometry" />
        </mxCell>
        <mxCell id="4_vkvy376eCyaTvO66Za-11" value="- neteq_:std::unique_ptr&lt;NetEq&gt;" style="text;strokeColor=none;fillColor=none;align=left;verticalAlign=top;spacingLeft=4;spacingRight=4;overflow=hidden;rotatable=0;points=[[0,0.5],[1,0.5]];portConstraint=eastwest;" vertex="1" parent="4_vkvy376eCyaTvO66Za-10">
          <mxGeometry y="26" width="560" height="34" as="geometry" />
        </mxCell>
        <mxCell id="4_vkvy376eCyaTvO66Za-12" value="" style="line;strokeWidth=1;fillColor=none;align=left;verticalAlign=middle;spacingTop=-1;spacingLeft=3;spacingRight=3;rotatable=0;labelPosition=right;points=[];portConstraint=eastwest;" vertex="1" parent="4_vkvy376eCyaTvO66Za-10">
          <mxGeometry y="60" width="560" height="8" as="geometry" />
        </mxCell>
        <mxCell id="4_vkvy376eCyaTvO66Za-13" value="// Inserts a payload with its associated RTP-header into NetEq.&#xa;+ InsertPacket(RTPHeader&amp;, incoming_payload):int&#xa;// Asks NetEq for 10 milliseconds of decoded audio.&#xa;+ GetAudio(desired_freq_hz, AudioFrame*, bool* muted): int&#xa;+ SetCodecs(const std::map&lt;int, SdpAudioFormat&gt;&amp;):void&#xa;# DecedeInternalr( encoded, encoded_len, sample_rate_hz, *decoded, * decoded,speech_type):int" style="text;strokeColor=none;fillColor=none;align=left;verticalAlign=top;spacingLeft=4;spacingRight=4;overflow=hidden;rotatable=0;points=[[0,0.5],[1,0.5]];portConstraint=eastwest;" vertex="1" parent="4_vkvy376eCyaTvO66Za-10">
          <mxGeometry y="68" width="560" height="102" as="geometry" />
        </mxCell>
        <mxCell id="4_vkvy376eCyaTvO66Za-14" value="Use" style="endArrow=open;endSize=12;dashed=1;html=1;rounded=0;exitX=1.007;exitY=0.344;exitDx=0;exitDy=0;entryX=0;entryY=0.5;entryDx=0;entryDy=0;exitPerimeter=0;" edge="1" parent="1" source="4_vkvy376eCyaTvO66Za-2" target="4_vkvy376eCyaTvO66Za-11">
          <mxGeometry width="160" relative="1" as="geometry">
            <mxPoint x="10" y="-87" as="sourcePoint" />
            <mxPoint x="78.84500000000003" y="-53.128000000000156" as="targetPoint" />
          </mxGeometry>
        </mxCell>
      </root>
    </mxGraphModel>
  </diagram>
</mxfile>
